<svg width="20" height="24" viewBox="0 0 20 24" fill="none" xmlns="http://www.w3.org/2000/svg">
<g id="Group 153">
<g id="Group 149">
<path id="Vector" d="M9.58331 19.0969H17.24C17.4656 19.0969 17.682 19.0072 17.8415 18.8477C18.0011 18.6881 18.0907 18.4717 18.0907 18.2461V16.434C18.0951 16.2362 18.0304 16.043 17.9077 15.8877C17.7851 15.7324 17.6121 15.6248 17.4186 15.5833C15.4619 15.0218 15.0706 12.6822 14.6878 8.01167C14.4751 5.45945 12.9863 2.90723 9.58331 2.90723C6.18034 2.90723 4.69154 5.45945 4.47886 8.01167C4.09603 12.6822 3.70468 15.0218 1.74798 15.5833C1.5545 15.6248 1.38153 15.7324 1.25886 15.8877C1.13619 16.043 1.07149 16.2362 1.07589 16.434V18.2461C1.07589 18.4717 1.16553 18.6881 1.32507 18.8477C1.48461 19.0072 1.701 19.0969 1.92664 19.0969H9.58331Z" stroke="#BBBBBB" stroke-width="2" stroke-linecap="round" stroke-linejoin="round"/>
<path id="Vector_2" d="M9.58307 22.4996C9.13181 22.4996 8.69903 22.3204 8.37994 22.0013C8.06085 21.6822 7.88159 21.2494 7.88159 20.7982V19.0967H11.2846V20.7982C11.2846 21.2494 11.1053 21.6822 10.7862 22.0013C10.4671 22.3204 10.0343 22.4996 9.58307 22.4996Z" stroke="#BBBBBB" stroke-width="2" stroke-linecap="round" stroke-linejoin="round"/>
</g>
<circle id="Ellipse 9" cx="13.5757" cy="4" r="3.5" fill="white"/>
<circle id="Ellipse 10" cx="13.5757" cy="4" r="2.5" fill="#FF7E7E"/>
</g>
</svg>
