<svg width="18" height="19" viewBox="0 0 18 19" fill="none" xmlns="http://www.w3.org/2000/svg">
<g id="Group 300">
<path id="Vector" opacity="0.982" fill-rule="evenodd" clip-rule="evenodd" d="M17.3936 16.9483C17.2447 17.0972 17.0957 17.2462 16.9468 17.3951C16.5314 17.6025 16.1219 17.5865 15.7181 17.3473C10.6756 12.347 5.65438 7.32539 0.654477 2.28254C0.415224 1.87871 0.399246 1.46913 0.606606 1.05375C0.75555 0.904794 0.904463 0.75587 1.05341 0.606915C1.46876 0.39954 1.87831 0.415519 2.28211 0.65479C7.32459 5.65506 12.3458 10.6766 17.3457 15.7195C17.585 16.1233 17.6009 16.5329 17.3936 16.9483Z" fill="black"/>
<path id="Vector_2" opacity="0.982" fill-rule="evenodd" clip-rule="evenodd" d="M1.05318 17.3946C0.904238 17.2457 0.755325 17.0967 0.60638 16.9478C0.399032 16.5324 0.414988 16.1228 0.654251 15.719C5.65416 10.6761 10.6754 5.65455 15.7179 0.654282C16.1217 0.415012 16.5312 0.399032 16.9466 0.606407C17.0955 0.755363 17.2444 0.904286 17.3934 1.05324C17.6007 1.46863 17.5848 1.8782 17.3455 2.28204C12.3456 7.32488 7.32437 12.3465 2.28189 17.3467C1.87807 17.586 1.46855 17.602 1.05318 17.3946Z" fill="black"/>
</g>
</svg>
