<svg width="31" height="25" viewBox="0 0 31 25" fill="none" xmlns="http://www.w3.org/2000/svg">
<path id="Vector" fill-rule="evenodd" clip-rule="evenodd" d="M0.0921102 9.99591H2.60072V4.99183C2.60395 3.66901 3.13067 2.40129 4.06572 1.46585C5.00077 0.530421 6.26807 0.00338988 7.5905 0H22.5902C25.3509 0 27.5946 2.24498 27.5946 4.99183V9.99767H30.0909V12.4936H0.0909424L0.0921102 9.99591ZM5.09648 9.99591H25.1012V4.99183C25.0987 4.32831 24.8332 3.69286 24.3629 3.22494C23.8926 2.75701 23.2559 2.49483 22.5925 2.49591H7.5905C6.92926 2.49761 6.29558 2.76112 5.82801 3.22882C5.36044 3.69653 5.09701 4.33039 5.09532 4.99183L5.09648 9.99591ZM27.5958 15.0023V19.9936C27.5947 21.3209 27.0671 22.5936 26.1289 23.5323C25.1906 24.4709 23.9183 24.9988 22.5914 25H7.5905C4.84445 25 2.60072 22.755 2.60072 19.9936V15.0041H5.09532V19.9953C5.09423 20.6589 5.35634 21.2957 5.82413 21.7662C6.29192 22.2366 6.92717 22.5022 7.5905 22.5047H22.5902C23.2555 22.5047 23.8936 22.2403 24.3641 21.7697C24.8345 21.2991 25.0988 20.6608 25.0988 19.9953V15.0041L27.5958 15.0023Z" fill="#BBBBBB"/>
</svg>
