<svg width="12" height="17" viewBox="0 0 12 17" fill="none" xmlns="http://www.w3.org/2000/svg">
<g id="Group">
<path id="Vector" d="M5.88482 0.284714C5.59125 0.326653 5.17187 0.465371 4.86862 0.623446C4.01696 1.06218 3.42982 1.80094 3.16529 2.75907L3.07819 3.07199V5.78184V8.49169L3.16529 8.80461C3.4266 9.74661 4.01696 10.4983 4.83636 10.9241C5.83643 11.4435 6.9365 11.4435 7.92366 10.9306C8.75597 10.495 9.3431 9.75306 9.60441 8.80461L9.69151 8.49169V5.78184V3.07199L9.60441 2.75907C9.33988 1.80094 8.75274 1.06218 7.90107 0.623446C7.28168 0.30407 6.57841 0.184708 5.88482 0.284714Z" fill="#0F0F0F"/>
<path id="Vector_2" d="M1.27153 7.45586C1.15217 7.50748 1.00377 7.67523 0.977964 7.78814C0.942478 7.92363 0.990868 8.63013 1.05861 8.95918C1.20378 9.68181 1.54574 10.4754 1.95545 11.0561C2.23611 11.4497 2.86196 12.0755 3.25553 12.3562C3.63297 12.6239 4.29108 12.953 4.72336 13.0885C5.0621 13.1982 5.61052 13.3143 5.77182 13.3143H5.8686V14.5241V15.7306L4.69433 15.7403C3.55877 15.7499 3.51361 15.7532 3.42651 15.8177C3.11036 16.0532 3.11036 16.4468 3.42651 16.6823C3.51684 16.75 3.52651 16.75 6.38476 16.75C9.24301 16.75 9.25269 16.75 9.34301 16.6823C9.65916 16.4468 9.65916 16.0532 9.34301 15.8177C9.25591 15.7532 9.21075 15.7499 8.07519 15.7403L6.90092 15.7306V14.5241V13.3143H6.9977C7.159 13.3143 7.70743 13.1949 8.04616 13.0885C8.86234 12.8272 9.56561 12.3949 10.1915 11.7658C10.6721 11.2851 10.956 10.898 11.2367 10.3302C11.5851 9.63019 11.7625 8.95596 11.7916 8.2172C11.8109 7.79782 11.8077 7.77846 11.7367 7.672C11.6077 7.48489 11.5012 7.42683 11.2915 7.42683C11.1399 7.42683 11.0851 7.44296 10.9915 7.51393C10.8367 7.63329 10.7818 7.80427 10.7592 8.2172C10.7076 9.26243 10.2624 10.2464 9.48173 11.0238C8.85589 11.6529 8.13326 12.0465 7.24933 12.24C6.87189 12.3207 5.89763 12.3207 5.52019 12.24C4.93951 12.111 4.3556 11.8626 3.8717 11.5303C3.52974 11.298 2.98777 10.7464 2.74904 10.3883C2.2974 9.71084 2.04577 8.97531 2.01029 8.2172C1.99093 7.8075 1.93286 7.63329 1.78447 7.51715C1.64897 7.41715 1.4167 7.38811 1.27153 7.45586Z" fill="#0F0F0F"/>
</g>
</svg>
