<svg width="48" height="47" viewBox="0 0 48 47" fill="none" xmlns="http://www.w3.org/2000/svg">
<g id="Group 192">
<rect id="Rectangle 35" x="0.0756836" width="47" height="47" rx="11" fill="#D0EDFB" fill-opacity="0.8"/>
<g id="Group 152">
<path id="Vector" d="M22.9704 13L14.8747 22.0821V32.9806C14.8747 33.2215 14.9695 33.4525 15.1382 33.6228C15.3069 33.7931 15.5356 33.8888 15.7742 33.8888H30.1666C30.4051 33.8888 30.6339 33.7931 30.8026 33.6228C30.9713 33.4525 31.0661 33.2215 31.0661 32.9806V22.0821L22.9704 13Z" stroke="#2DC0FF" stroke-width="2" stroke-linecap="round" stroke-linejoin="round"/>
<path id="Vector_2" d="M22.9704 13L13.0757 23.8985" stroke="#2DC0FF" stroke-width="2" stroke-linecap="round" stroke-linejoin="round"/>
<path id="Vector_3" d="M22.9704 13L32.8651 23.8985" stroke="#2DC0FF" stroke-width="2" stroke-linecap="round" stroke-linejoin="round"/>
<path id="Vector_4" d="M22.9704 25.7149C24.4608 25.7149 25.669 24.495 25.669 22.9903C25.669 21.4855 24.4608 20.2656 22.9704 20.2656C21.48 20.2656 20.2719 21.4855 20.2719 22.9903C20.2719 24.495 21.48 25.7149 22.9704 25.7149Z" stroke="#2DC0FF" stroke-width="2" stroke-linecap="round" stroke-linejoin="round"/>
</g>
</g>
</svg>
