<svg width="24" height="23" viewBox="0 0 24 23" fill="none" xmlns="http://www.w3.org/2000/svg">
<g id="Group 154">
<path id="Vector" d="M23.9243 11.5001C23.9243 5.43432 18.9964 0.5 12.9385 0.5C7.71244 0.5 3.33052 4.17356 2.22456 9.0763H0.569319C0.114193 9.0763 -0.0444728 9.38147 0.216989 9.75469L2.74953 13.371C3.01099 13.7443 3.43896 13.7443 3.70011 13.371L6.23359 9.75469C6.4949 9.38147 6.33623 9.0763 5.88095 9.0763H4.53048C5.58323 5.42002 8.95289 2.73742 12.9387 2.73742C17.764 2.73742 21.6898 6.66822 21.6898 11.5001C21.6898 15.9787 18.317 19.6799 13.982 20.1983C13.8903 20.2093 13.7985 20.2189 13.7068 20.2271C13.6416 20.2326 13.5762 20.2378 13.5107 20.2428C13.4255 20.2483 13.3401 20.2524 13.2551 20.2557C13.183 20.2582 13.1107 20.2604 13.0382 20.261C10.8516 20.2886 8.73429 19.4936 7.10492 18.0332C6.99638 17.9311 6.86855 17.8518 6.72894 17.7999C6.58934 17.748 6.44078 17.7245 6.292 17.7309C6.14323 17.7373 5.99723 17.7735 5.86259 17.8372C5.72796 17.9009 5.6074 17.9909 5.50801 18.102C5.40862 18.213 5.33241 18.3428 5.28384 18.4838C5.23528 18.6248 5.21535 18.774 5.22522 18.9228C5.2351 19.0716 5.27458 19.2169 5.34134 19.3502C5.4081 19.4834 5.5008 19.602 5.61399 19.6989C7.62634 21.5043 10.2337 22.5019 12.9357 22.5002C13.1035 22.5002 13.2714 22.495 13.4396 22.4874L13.5575 22.4816C13.7171 22.4725 13.877 22.4607 14.037 22.4447C14.0683 22.4419 14.0997 22.4375 14.1311 22.4342C14.2134 22.4251 14.2957 22.4167 14.3781 22.4059C14.3971 22.4032 14.4153 22.3988 14.4342 22.3957C19.7864 21.6623 23.9243 17.0573 23.9243 11.5001Z" fill="#BBBBBB"/>
<path id="Vector_2" d="M12.939 4.54297C12.6427 4.54297 12.3585 4.66083 12.149 4.87063C11.9394 5.08043 11.8217 5.36498 11.8217 5.66168V11.4999C11.8218 11.7966 11.9395 12.0811 12.149 12.2908C12.3586 12.5006 12.6427 12.6185 12.939 12.6186H18.0248C18.3211 12.6186 18.6053 12.5007 18.8148 12.2909C19.0243 12.0811 19.142 11.7966 19.142 11.4999C19.142 11.2032 19.0243 10.9186 18.8148 10.7088C18.6053 10.499 18.3211 10.3812 18.0248 10.3812H14.0561V5.66168C14.0561 5.51477 14.0272 5.3693 13.9711 5.23358C13.9149 5.09785 13.8327 4.97452 13.7289 4.87064C13.6252 4.76676 13.502 4.68435 13.3665 4.62813C13.231 4.57191 13.0857 4.54297 12.939 4.54297Z" fill="#BBBBBB"/>
</g>
</svg>
