<svg width="25" height="24" viewBox="0 0 25 24" fill="none" xmlns="http://www.w3.org/2000/svg">
<g id="logos:google-icon" clip-path="url(#clip0_2914_1032)">
<path id="Vector" d="M24.214 12.2242C24.214 11.2409 24.1342 10.5234 23.9616 9.7793H12.7336V14.2173H19.3241C19.1913 15.3202 18.4738 16.9811 16.8793 18.0972L16.8569 18.2458L20.407 20.996L20.6529 21.0205C22.9118 18.9344 24.214 15.8649 24.214 12.2242Z" fill="#4285F4"/>
<path id="Vector_2" d="M12.7336 23.9178C15.9624 23.9178 18.673 22.8548 20.6529 21.0211L16.8793 18.0978C15.8694 18.8021 14.5141 19.2937 12.7336 19.2937C9.57118 19.2937 6.88712 17.2076 5.93032 14.3242L5.79008 14.3361L2.09866 17.193L2.05038 17.3271C4.01692 21.2337 8.05634 23.9178 12.7336 23.9178Z" fill="#34A853"/>
<path id="Vector_3" d="M5.93032 14.3238C5.67786 13.5797 5.53176 12.7824 5.53176 11.9586C5.53176 11.1347 5.67786 10.3375 5.91704 9.59342L5.91035 9.43494L2.17267 6.53223L2.05038 6.59039C1.23988 8.21149 0.774811 10.0319 0.774811 11.9586C0.774811 13.8853 1.23988 15.7056 2.05038 17.3267L5.93032 14.3238Z" fill="#FBBC05"/>
<path id="Vector_4" d="M12.7336 4.62403C14.9791 4.62403 16.4939 5.59401 17.3576 6.40461L20.7326 3.10928C18.6599 1.1826 15.9624 0 12.7336 0C8.05634 0 4.01692 2.68406 2.05038 6.59056L5.91704 9.59359C6.88712 6.7102 9.57118 4.62403 12.7336 4.62403Z" fill="#EB4335"/>
</g>
<defs>
<clipPath id="clip0_2914_1032">
<rect width="23.46" height="24" fill="white" transform="translate(0.769989)"/>
</clipPath>
</defs>
</svg>
