<svg width="25" height="24" viewBox="0 0 25 24" fill="none" xmlns="http://www.w3.org/2000/svg">
<g id="logos:facebook" clip-path="url(#clip0_2914_4495)">
<path id="Vector" d="M24.5 12C24.5 5.37262 19.1274 0 12.5 0C5.87262 0 0.5 5.37253 0.5 12C0.5 17.9895 4.88825 22.954 10.625 23.8542L10.625 15.4687H7.57812V12H10.625V9.35625C10.625 6.34875 12.4166 4.6875 15.1575 4.6875C16.4705 4.6875 17.8437 4.92187 17.8437 4.92187V7.875H16.3306C14.8398 7.875 14.375 8.80003 14.375 9.74906V12L17.7031 12L17.1711 15.4687L14.375 15.4687L14.375 23.8542C20.1117 22.954 24.5 17.9896 24.5 12Z" fill="#1877F2"/>
<path id="Vector_2" d="M17.1711 15.4687L17.7031 12H14.375V9.74906C14.375 8.79994 14.8399 7.875 16.3306 7.875H17.8437V4.92187C17.8437 4.92187 16.4705 4.6875 15.1575 4.6875C12.4166 4.6875 10.625 6.34875 10.625 9.35625V12H7.57812L7.57812 15.4687H10.625V23.8542C11.2453 23.9514 11.8722 24.0002 12.5 24C13.1278 24.0002 13.7547 23.9514 14.375 23.8542V15.4687H17.1711Z" fill="white"/>
</g>
<defs>
<clipPath id="clip0_2914_4495">
<rect width="24" height="24" fill="white" transform="translate(0.5)"/>
</clipPath>
</defs>
</svg>
