<svg width="17" height="17" viewBox="0 0 17 17" fill="none" xmlns="http://www.w3.org/2000/svg">
<path id="Vector" opacity="0.963" fill-rule="evenodd" clip-rule="evenodd" d="M6.35873 0.178592C9.04257 0.000380486 11.1705 0.990425 12.7426 3.14872C14.0168 5.17146 14.2354 7.30586 13.3983 9.55186C13.1373 10.1965 12.7837 10.7816 12.3376 11.3069C13.8484 12.8177 15.3591 14.3285 16.8699 15.8393C17.0333 16.1757 16.9883 16.4779 16.7349 16.7457C16.4777 16.8743 16.2206 16.8743 15.9634 16.7457C14.4526 15.2349 12.9419 13.7242 11.4311 12.2134C9.39798 13.7898 7.1543 14.1691 4.70009 13.3513C2.44055 12.4387 1.01976 10.7993 0.43776 8.43324C-0.0623978 5.61262 0.79264 3.30467 3.00287 1.50936C4.01017 0.781509 5.12879 0.337918 6.35873 0.178592ZM7.05305 1.41293C9.33684 1.51593 11.0148 2.57028 12.0868 4.57593C13.1048 7.08029 12.6483 9.27251 10.7175 11.1526C8.97657 12.542 7.06076 12.8506 4.9701 12.0784C2.80264 11.0682 1.67115 9.36458 1.57567 6.96746C1.65483 4.69288 2.69629 3.02779 4.70009 1.97224C5.4535 1.63274 6.23784 1.44631 7.05305 1.41293Z" fill="black"/>
</svg>
